#!OML:ASF Y:\EmotionMaleHayes\Project 1\Capture day 1\Session 1\Male1.ASF
:FULLY-SPECIFIED
:DEGREES
2813
root -29.1695 16.7124 5.47115 1256.87 417.956 901.66
lowerback 7.21509 1.27411 0.871319
upperback 1.08715 1.84493 1.1466
thorax -2.93146 0.932881 0.514814
lowerneck -17.62 -6.60549 -2.76939
upperneck 22.5155 -9.16437 3.84987
head 10.4375 -3.85469 0.54118
rclavicle 6.41205e-014 9.54166e-015
rhumerus -27.2278 18.4302 -91.3629
rradius 45.9874
rwrist 1.17193
rhand -7.27021 -31.2551
rfingers 7.12502
rthumb 18.6109 -60.3848
lclavicle 6.41205e-014 9.54166e-015
lhumerus -45.4297 -4.16385 89.3588
lradius 26.5926
lwrist -7.28844
lhand -16.6851 -20.4241
lfingers 7.12502
lthumb 9.53917 9.33994
rfemur 7.70861 -8.64519 27.2179
rtibia 6.17614
rfoot -11.4043 10.7086
rtoes 37.6011
lfemur -0.178934 4.54573 -8.57521
ltibia 48.1042
lfoot -14.753 8.97212
ltoes -12.5948
2814
root -29.1509 16.7199 5.41739 1256.82 419.224 901.647
lowerback 7.27193 1.30473 0.820444
upperback 1.08007 1.88146 1.13308
thorax -2.97179 0.951005 0.524376
lowerneck -17.5549 -6.50794 -2.74791
upperneck 22.4802 -9.02318 3.79924
head 10.4032 -3.79871 0.542988
rclavicle -8.04674e-014 -7.95139e-016
rhumerus -26.5287 18.385 -91.48
rradius 45.8543
rwrist 1.47586
rhand -7.40132 -31.0876
rfingers 7.12502
rthumb 18.4848 -60.2293
lclavicle -8.04674e-014 -7.95139e-016
lhumerus -45.7085 -3.77851 88.9199
lradius 25.8361
lwrist -8.39236
lhand -15.6631 -20.2677
lfingers 7.12502
lthumb 10.5251 9.44877
rfemur 8.03099 -7.93738 27.2092
rtibia 6.05574
rfoot -11.2586 11.1393
rtoes 36.4585
lfemur -0.448196 3.56046 -8.40694
ltibia 47.1049
lfoot -15.3243 9.47249
ltoes -14.265
2815
root -29.1302 16.7265 5.37023 1257.38 420.481 902.378
lowerback 7.42181 1.30739 1.16144
upperback 1.08032 1.91714 1.1621
thorax -3.04526 0.965483 0.355882
lowerneck -17.5778 -6.42968 -2.69262
upperneck 22.4854 -8.93557 3.80956
head 10.404 -3.75372 0.549645
rclavicle -1.7931e-014 2.98177e-015
rhumerus -25.7475 18.3797 -91.7288
rradius 45.6568
rwrist 1.44871
rhand -7.0563 -31.169
rfingers 7.12502
rthumb 18.8167 -60.2788
lclavicle -1.7931e-014 2.98177e-015
lhumerus -46.1987 -3.9746 88.6496
lradius 25.4731
lwrist -9.08736
lhand -14.4896 -20.1652
lfingers 7.12502
lthumb 11.657 9.49048
rfemur 8.44913 -7.49736 27.5719
rtibia 5.89195
rfoot -11.203 11.827
rtoes 36.4449
lfemur -0.661649 2.7128 -7.64712
ltibia 45.9909
lfoot -15.7398 9.73466
ltoes -14.6503
2816
root -29.1132 16.7313 5.31729 1257.82 421.69 902.894
lowerback 7.46835 1.26297 1.37339
upperback 1.12994 1.87868 1.20432
thorax -3.0147 0.945445 0.283958
lowerneck -17.947 -6.29519 -2.56369
upperneck 22.6413 -8.75945 3.67435
head 10.5106 -3.67128 0.494216
rclavicle -8.16881e-016 1.25234e-014
rhumerus -24.9094 18.4716 -91.8918
rradius 45.4719
rwrist 1.48488
rhand -7.04677 -30.7373
rfingers 7.12502
rthumb 18.8258 -59.8463
lclavicle -8.16881e-016 1.25234e-014
lhumerus -46.4629 -3.85353 88.3349
lradius 24.8518
lwrist -10.4455
lhand -13.8817 -20.52
lfingers 7.12502
lthumb 12.2432 9.10168
rfemur 8.66962 -6.15596 28.1151
rtibia 5.94913
rfoot -11.6059 11.6275
rtoes 36.8664
lfemur -0.87224 2.0031 -6.99049
ltibia 44.784
lfoot -16.1794 9.88653
ltoes -15.0743
2817
root -29.102 16.7369 5.25711 1257.48 422.812 902.381
lowerback 7.35816 1.23204 1.12625
upperback 1.18343 1.81165 1.151
thorax -2.90403 0.914663 0.377531
lowerneck -18.2189 -6.12826 -2.41234
upperneck 22.6174 -8.53682 3.52466
head 10.5305 -3.57591 0.441678
rclavicle -8.40176e-015 3.77691e-015
rhumerus -24.1705 18.5194 -91.9547
rradius 45.3661
rwrist 1.75266
rhand -7.78727 -30.1283
rfingers 7.12502
rthumb 18.1135 -59.3048
lclavicle -8.40176e-015 3.77691e-015
lhumerus -46.4936 -3.29467 87.858
lradius 23.969
lwrist -12.5576
lhand -13.7196 -21.0954
lfingers 7.12502
lthumb 12.3995 8.51687
rfemur 8.74242 -5.62076 27.7321
rtibia 6.04828
rfoot -10.3649 12.2468
rtoes 37.7155
lfemur -1.16968 1.15507 -7.06589
ltibia 43.5015
lfoot -16.6114 10.3125
ltoes -16.0115
2818
root -29.0894 16.7439 5.20519 1256.93 424 901.641
lowerback 7.28877 1.28153 0.772169
upperback 1.17097 1.84213 1.05141
thorax -2.88588 0.931537 0.471985
lowerneck -18.1891 -5.98566 -2.37571
upperneck 22.4956 -8.35874 3.56839
head 10.4751 -3.49229 0.479302
rclavicle -2.45654e-014 -9.93923e-016
rhumerus -23.6243 18.5547 -92.1001
rradius 45.3648
rwrist 1.88724
rhand -8.4136 -29.9532
rfingers 7.12502
rthumb 17.5108 -59.1845
lclavicle -2.45654e-014 -9.93923e-016
lhumerus -46.5912 -2.98791 87.386
lradius 23.271
lwrist -13.9723
lhand -12.8545 -21.1781
lfingers 7.12502
lthumb 13.2335 8.3818
rfemur 8.64335 -5.19958 27.2425
rtibia 6.37215
rfoot -10.3311 12.9489
rtoes 36.7423
lfemur -1.47255 0.303346 -7.21784
ltibia 42.2375
lfoot -16.9731 10.622
ltoes -14.9153
2819
root -29.0702 16.7526 5.15306 1256.51 425.278 901.187
lowerback 7.33446 1.37879 0.615335
upperback 1.11991 1.95452 0.958078
thorax -2.96641 0.987046 0.450922
lowerneck -18.018 -5.8745 -2.41874
upperneck 22.4468 -8.21087 3.65117
head 10.4264 -3.42261 0.542529
rclavicle 7.98431e-014 4.17448e-015
rhumerus -23.2396 18.431 -92.2966
rradius 45.4218
rwrist 1.76244
rhand -8.56824 -30.1099
rfingers 7.12502
rthumb 17.362 -59.3545
lclavicle 7.98431e-014 4.17448e-015
lhumerus -46.8559 -3.13467 87.2093
lradius 22.6775
lwrist -15.261
lhand -12.4221 -20.306
lfingers 7.12502
lthumb 13.6502 9.22637
rfemur 8.80184 -4.65254 26.9527
rtibia 6.46943
rfoot -10.3606 13.6348
rtoes 35.8638
lfemur -1.47975 -0.468372 -7.13793
ltibia 40.8194
lfoot -17.2679 10.7948
ltoes -13.4203
2820
root -29.049 16.7611 5.10046 1256.62 426.531 901.385
lowerback 7.39064 1.47843 0.801195
upperback 1.10718 2.10018 0.904192
thorax -3.00289 1.05679 0.275265
lowerneck -17.8534 -5.81342 -2.36845
upperneck 22.2889 -8.13039 3.61899
head 10.3314 -3.3944 0.540512
rclavicle 9.31182e-014 1.39149e-015
rhumerus -22.8709 18.2396 -92.4644
rradius 45.5147
rwrist 1.42722
rhand -8.74693 -30.0644
rfingers 7.12502
rthumb 17.19 -59.324
lclavicle 9.31182e-014 1.39149e-015
lhumerus -47.0913 -3.23013 86.8195
lradius 22.2616
lwrist -16.3693
lhand -11.7376 -20.2035
lfingers 7.12502
lthumb 14.3098 9.28343
rfemur 9.29087 -4.63733 26.7543
rtibia 6.05178
rfoot -9.94783 14.8549
rtoes 35.9491
lfemur -1.32505 -1.16147 -6.68636
ltibia 39.1996
lfoot -17.4464 10.9649
ltoes -13.6639
2821
root -29.031 16.7714 5.05431 1257 427.761 901.85
lowerback 7.39162 1.5617 1.01959
upperback 1.18613 2.22904 0.904155
thorax -2.91364 1.11997 0.141699
lowerneck -17.9112 -5.74136 -2.31601
upperneck 22.089 -8.03467 3.5768
head 10.2623 -3.36004 0.530519
rclavicle -4.31083e-014 1.59028e-015
rhumerus -22.3412 18.2924 -92.5723
rradius 45.596
rwrist 1.12069
rhand -9.22034 -30.0058
rfingers 7.12502
rthumb 16.7343 -59.3046
lclavicle -4.31083e-014 1.59028e-015
lhumerus -47.1898 -3.18596 86.3116
lradius 21.8534
lwrist -17.8425
lhand -11.7523 -20.6854
lfingers 7.12502
lthumb 14.2957 8.80251
rfemur 9.41889 -4.19015 26.8846
rtibia 6.19041
rfoot -9.92892 15.5257
rtoes 35.5797
lfemur -1.20848 -1.6687 -6.01909
ltibia 37.6567
lfoot -17.7361 10.8154
ltoes -13.4274
2822
root -29.0102 16.7874 5.002 1256.31 429.018 901.219
lowerback 7.44186 1.59658 0.623272
upperback 1.25265 2.24558 0.931423
thorax -2.88911 1.13272 0.389701
lowerneck -18.0319 -5.54501 -2.29371
upperneck 22.0307 -7.75341 3.51454
head 10.2508 -3.23982 0.542742
rclavicle 2.05369e-014 -2.78299e-015
rhumerus -21.9301 18.7305 -92.6624
rradius 45.6815
rwrist 0.935958
rhand -9.70148 -30.3902
rfingers 7.12502
rthumb 16.2711 -59.7275
lclavicle 2.05369e-014 -2.78299e-015
lhumerus -47.2388 -2.47235 85.6485
lradius 21.4701
lwrist -18.8286
lhand -11.2811 -20.9548
lfingers 7.12502
lthumb 14.7497 8.50039
rfemur 9.62657 -3.06239 26.756
rtibia 6.31293
rfoot -10.0809 15.5183
rtoes 35.1173
lfemur -0.951515 -2.15545 -5.96858
ltibia 36.1606
lfoot -18.0483 10.8946
ltoes -13.671
2823
root -28.9913 16.7898 4.95753 1255.83 430.143 900.495
lowerback 7.23942 1.52839 0.116246
upperback 1.18717 2.10875 0.900151
thorax -2.86029 1.06773 0.659721
lowerneck -17.9589 -5.24148 -2.00501
upperneck 21.9484 -7.38505 3.40963
head 10.1791 -3.06387 0.51494
rclavicle 2.96313e-014 2.98177e-015
rhumerus -21.7166 19.3153 -92.9984
rradius 45.8584
rwrist 0.632708
rhand -9.97638 -30.6509
rfingers 7.12502
rthumb 16.0064 -60.0097
lclavicle 2.96313e-014 2.98177e-015
lhumerus -47.3988 -1.68782 84.7765
lradius 21.0544
lwrist -19.7914
lhand -11.2622 -21.1915
lfingers 7.12502
lthumb 14.7679 8.2624
rfemur 9.40038 -1.94282 26.6862
rtibia 6.63583
rfoot -10.4036 15.3697
rtoes 34.7028
lfemur -1.12669 -2.68925 -5.93506
ltibia 34.812
lfoot -18.1849 11.1433
ltoes -15.12
2824
root -28.9714 16.7949 4.9174 1255.92 431.286 900.53
lowerback 7.21345 1.52996 -0.0322397
upperback 1.15845 2.09693 0.873202
thorax -2.87959 1.06251 0.716586
lowerneck -17.9443 -5.03568 -1.70114
upperneck 21.888 -7.15936 3.30624
head 10.1314 -2.95026 0.462468
rclavicle 8.80057e-014 9.93923e-016
rhumerus -21.5318 19.7089 -93.2943
rradius 46.1061
rwrist 0.117446
rhand -9.99615 -30.4232
rfingers 7.12502
rthumb 15.9874 -59.7835
lclavicle 8.80057e-014 9.93923e-016
lhumerus -47.5058 -1.42649 84.0977
lradius 20.7432
lwrist -20.4614
lhand -11.2153 -21.0809
lfingers 7.12502
lthumb 14.8131 8.36963
rfemur 9.4097 -1.32692 26.7665
rtibia 6.81086
rfoot -10.4665 15.5982
rtoes 34.4941
lfemur -1.0747 -3.34189 -5.56442
ltibia 33.3429
lfoot -18.4232 11.1362
ltoes -14.8954
2825
root -28.9503 16.8047 4.87256 1255.72 432.293 900.454
lowerback 7.25976 1.52382 -0.157
upperback 1.24363 2.08052 0.878988
thorax -2.82184 1.0561 0.794144
lowerneck -18.0782 -4.89069 -1.52944
upperneck 21.8608 -6.97682 3.17224
head 10.1294 -2.86963 0.410385
rclavicle -6.56611e-015 -3.37934e-015
rhumerus -21.1473 20.1215 -93.4071
rradius 46.1804
rwrist -0.505141
rhand -9.93665 -30.031
rfingers 7.12502
rthumb 16.0447 -59.3866
lclavicle -6.56611e-015 -3.37934e-015
lhumerus -47.5026 -1.13618 83.5305
lradius 20.5498
lwrist -20.901
lhand -10.4605 -20.5342
lfingers 7.12502
lthumb 15.5402 8.86139
rfemur 9.93358 -1.04918 26.614
rtibia 6.35993
rfoot -9.79675 16.057
rtoes 35.5237
lfemur -0.811882 -4.14285 -5.33718
ltibia 31.7753
lfoot -18.4917 11.2805
ltoes -15.1344
2826
root -28.9338 16.8093 4.81102 1255.62 432.715 900.353
lowerback 7.25171 1.32844 -0.00593246
upperback 1.23161 1.82885 0.795632
thorax -2.81818 0.928812 0.647857
lowerneck -18.2382 -4.74119 -1.24367
upperneck 21.9254 -6.79623 2.93053
head 10.1571 -2.78994 0.300666
rclavicle -3.12589e-014 -1.98785e-016
rhumerus -20.6916 20.3394 -93.5716
rradius 45.9743
rwrist -0.871768
rhand -9.75508 -29.9317
rfingers 7.12502
rthumb 16.2195 -59.2732
lclavicle -3.12589e-014 -1.98785e-016
lhumerus -47.605 -0.72896 82.7731
lradius 20.4947
lwrist -21.4045
lhand -9.11851 -20.0505
lfingers 7.12502
lthumb 16.8324 9.23997
rfemur 9.98608 -0.529796 26.5539
rtibia 6.55046
rfoot -9.70399 15.8392
rtoes 36.687
lfemur -1.03227 -5.27868 -5.28837
ltibia 30.557
lfoot -18.29 11.6202
ltoes -16.9311
